<?xml version="1.0" standalone="no"?>
<svg xmlns:xlink="http://www.w3.org/1999/xlink" id="wave" style="transform:rotate(180deg); transition: 0.3s" viewBox="0 0 1440 490" version="1.1" xmlns="http://www.w3.org/2000/svg"><defs><linearGradient id="sw-gradient-0" x1="0" x2="0" y1="1" y2="0"><stop stop-color="rgba(120, 104, 230, 1)" offset="0%"/><stop stop-color="rgba(120, 104, 230, 1)" offset="100%"/></linearGradient></defs><path style="transform:translate(0, 0px); opacity:1" fill="url(#sw-gradient-0)" d="M0,245L80,245C160,245,320,245,480,212.3C640,180,800,114,960,73.5C1120,33,1280,16,1440,57.2C1600,98,1760,196,1920,269.5C2080,343,2240,392,2400,375.7C2560,359,2720,278,2880,204.2C3040,131,3200,65,3360,98C3520,131,3680,261,3840,261.3C4000,261,4160,131,4320,122.5C4480,114,4640,229,4800,285.8C4960,343,5120,343,5280,318.5C5440,294,5600,245,5760,261.3C5920,278,6080,359,6240,334.8C6400,310,6560,180,6720,147C6880,114,7040,180,7200,204.2C7360,229,7520,212,7680,212.3C7840,212,8000,229,8160,228.7C8320,229,8480,212,8640,212.3C8800,212,8960,229,9120,253.2C9280,278,9440,310,9600,318.5C9760,327,9920,310,10080,326.7C10240,343,10400,392,10560,400.2C10720,408,10880,376,11040,359.3C11200,343,11360,343,11440,343L11520,343L11520,490L11440,490C11360,490,11200,490,11040,490C10880,490,10720,490,10560,490C10400,490,10240,490,10080,490C9920,490,9760,490,9600,490C9440,490,9280,490,9120,490C8960,490,8800,490,8640,490C8480,490,8320,490,8160,490C8000,490,7840,490,7680,490C7520,490,7360,490,7200,490C7040,490,6880,490,6720,490C6560,490,6400,490,6240,490C6080,490,5920,490,5760,490C5600,490,5440,490,5280,490C5120,490,4960,490,4800,490C4640,490,4480,490,4320,490C4160,490,4000,490,3840,490C3680,490,3520,490,3360,490C3200,490,3040,490,2880,490C2720,490,2560,490,2400,490C2240,490,2080,490,1920,490C1760,490,1600,490,1440,490C1280,490,1120,490,960,490C800,490,640,490,480,490C320,490,160,490,80,490L0,490Z"/></svg>